HIERARCHY
ROOT Hips
{
	OFFSET	0.000000	0.000000	0.000000
	CHANNELS 6 Xposition Yposition Zposition Zrotation Xrotation Yrotation
	JOINT LeftUpLeg
	{
		OFFSET	12.830505	-7.049846	-1.643436
		CHANNELS 3 Zrotation Xrotation Yrotation
		JOINT LeftLeg
		{
			OFFSET	0.620834	-39.957500	-1.919341
			CHANNELS 3 Zrotation Xrotation Yrotation
			JOINT LeftFoot
			{
				OFFSET	-0.413890	-44.704761	-3.870325
				CHANNELS 3 Zrotation Xrotation Yrotation
				JOINT LeftFootHeel
				{
					OFFSET	0.164738	-8.918193	-6.555130
					CHANNELS 3 Zrotation Xrotation Yrotation
					End Site
					{
						OFFSET	-0.604053	0.000000	21.044330
					}
				}
			}
		}
	}
	JOINT RightUpLeg
	{
		OFFSET	-12.830505	-7.049846	-1.643436
		CHANNELS 3 Zrotation Xrotation Yrotation
		JOINT RightLeg
		{
			OFFSET	-0.620834	-39.957500	-1.919341
			CHANNELS 3 Zrotation Xrotation Yrotation
			JOINT RightFoot
			{
				OFFSET	0.413890	-44.704761	-3.870325
				CHANNELS 3 Zrotation Xrotation Yrotation
				JOINT RightFootHeel
				{
					OFFSET	-0.164738	-8.918193	-6.555130
					CHANNELS 3 Zrotation Xrotation Yrotation
					End Site
					{
						OFFSET	0.604053	0.000000	21.044330
					}
				}
			}
		}
	}
	JOINT Spine
	{
		OFFSET	0.000000	12.498170	1.820647
		CHANNELS 3 Zrotation Xrotation Yrotation
		JOINT Spine1
		{
			OFFSET	0.000000	7.620000	0.000000
			CHANNELS 3 Zrotation Xrotation Yrotation
			JOINT LeftShoulder
			{
				OFFSET	9.167800	29.136339	-5.551221
				CHANNELS 3 Zrotation Xrotation Yrotation
				JOINT LeftArm
				{
					OFFSET	12.133453	-3.880866	1.461963
					CHANNELS 3 Zrotation Xrotation Yrotation
					JOINT LeftForeArm
					{
						OFFSET	2.507115	-31.664908	-1.069404
						CHANNELS 3 Zrotation Xrotation Yrotation
						JOINT LeftHand
						{
							OFFSET	4.116172	-24.512624	5.009439
							CHANNELS 3 Zrotation Xrotation Yrotation
							End Site
							{
								OFFSET	-0.213136	-10.931856	2.182134
							}
						}
					}
				}
			}
			JOINT RightShoulder
			{
				OFFSET	-9.167800	29.136339	-5.551221
				CHANNELS 3 Zrotation Xrotation Yrotation
				JOINT RightArm
				{
					OFFSET	-12.133453	-3.880866	1.461963
					CHANNELS 3 Zrotation Xrotation Yrotation
					JOINT RightForeArm
					{
						OFFSET	-2.507115	-31.664908	-1.069404
						CHANNELS 3 Zrotation Xrotation Yrotation
						JOINT RightHand
						{
							OFFSET	-4.116172	-24.512624	5.009439
							CHANNELS 3 Zrotation Xrotation Yrotation
							End Site
							{
								OFFSET	0.213136	-10.931856	2.182134
							}
						}
					}
				}
			}
			JOINT Neck
			{
				OFFSET	0.000000	32.926272	-3.635654
				CHANNELS 3 Zrotation Xrotation Yrotation
				JOINT Head
				{
					OFFSET	0.000000	12.481178	4.646143
					CHANNELS 3 Zrotation Xrotation Yrotation
					End Site
					{
						OFFSET	0.000000	17.715204	-2.222063
					}
				}
			}
		}
	}
}
MOTION
Frames:     11
Frame Time: 0.016667
0.000000	103.129014	0.000000	0.230354	0.592157	1.011316	0.903380	2.257374	-1.593318	-0.907645	-3.842977	1.122585	-0.165710	1.042627	-0.493118	0.	0.	0.	-0.829932	2.680630	0.268165	0.655154	-4.620849	-2.426968	-0.327283	1.394663	1.248803	0.	0.	0.	0.000001	0.000000	0.000000	0.007341	-1.322651	2.352840	-0.557711	-1.093536	-2.373469	-0.743794	-1.972512	-1.325929	4.861641	-2.040276	-7.324548	-0.423776	-7.749159	-5.408885	-0.170842	-1.830462	-1.530083	0.457516	0.955011	0.519383	0.287157	2.694569	-8.601336	12.549086	-1.560423	-5.074026	-2.435766	-4.470809	2.828570	0.956313	1.668863	0.649265	
0.000000	103.129014	0.000000	0.230354	0.592157	1.011316	0.903380	2.257374	-1.593318	-0.907645	-3.842977	1.122585	-0.165710	1.042627	-0.493118	0.	0.	0.	-0.829932	2.680630	0.268165	0.655154	-4.620849	-2.426968	-0.327283	1.394663	1.248803	0.	0.	0.	0.000001	0.000000	0.000000	0.007341	-1.322651	2.352840	-0.557711	-1.093536	-2.373469	-0.743794	-1.972512	-1.325929	4.861641	-2.040276	-7.324548	-0.423776	-7.749159	-5.408885	-0.170842	-1.830462	-1.530083	0.457516	0.955011	0.519383	0.287157	2.694569	-8.601336	12.561644	-1.565695	-5.068036	-2.435766	-4.470809	2.828570	0.956313	1.668863	0.649265	
0.000000	103.129014	0.000000	0.230354	0.592157	1.011316	0.903380	2.257374	-1.593318	-0.907645	-3.842977	1.122585	-0.165710	1.042627	-0.493118	0.	0.	0.	-0.829932	2.680630	0.268165	0.655154	-4.620849	-2.426968	-0.327283	1.394663	1.248803	0.	0.	0.	0.000001	0.000000	0.000000	0.007341	-1.322651	2.352840	-0.557711	-1.093536	-2.373469	-0.743794	-1.972512	-1.325929	4.861641	-2.040276	-7.324548	-0.423776	-7.749159	-5.408885	-0.170842	-1.830462	-1.530083	0.457087	0.955459	0.523554	0.287777	2.694098	-8.605501	12.574003	-1.534799	-5.068166	-2.435766	-4.470809	2.828570	0.956313	1.668863	0.649265	
0.000000	103.129014	0.000000	0.230354	0.592157	1.011316	0.903380	2.257374	-1.593318	-0.907645	-3.842977	1.122585	-0.165710	1.042627	-0.493118	0.	0.	0.	-0.829932	2.680630	0.268165	0.655154	-4.620849	-2.426968	-0.327283	1.394663	1.248803	0.	0.	0.	0.000001	0.000000	0.000000	0.007341	-1.322651	2.352840	-0.557711	-1.093536	-2.373469	-0.743794	-1.972512	-1.325929	4.861641	-2.040276	-7.324548	-0.423776	-7.749159	-5.408885	-0.170842	-1.830462	-1.530083	0.455061	0.957501	0.542955	0.290694	2.691938	-8.624877	12.588585	-1.497658	-5.065108	-2.435766	-4.470809	2.828570	0.956313	1.668863	0.649265	
0.000000	103.129014	0.000000	0.230354	0.592157	1.011316	0.903380	2.257374	-1.593318	-0.907645	-3.842977	1.122585	-0.165710	1.042627	-0.493118	0.	0.	0.	-0.829932	2.680630	0.268165	0.655154	-4.620849	-2.426968	-0.327283	1.394663	1.248803	0.	0.	0.	0.000001	0.000000	0.000000	0.007341	-1.322651	2.352840	-0.557711	-1.093536	-2.373469	-0.743794	-1.972512	-1.325929	4.861641	-2.040276	-7.324548	-0.408405	-7.782887	-5.457048	-0.170842	-1.830462	-1.530083	0.452739	0.959861	0.565299	0.294041	2.689443	-8.647198	12.588581	-1.497658	-5.065108	-2.435766	-4.470809	2.828570	0.956313	1.668863	0.649265	
0.000000	103.129014	0.000000	0.230354	0.592157	1.011316	0.903380	2.257374	-1.593318	-0.907645	-3.842977	1.122585	-0.165710	1.042627	-0.493118	0.	0.	0.	-0.829932	2.680630	0.268165	0.655154	-4.620849	-2.426968	-0.327283	1.394663	1.248803	0.	0.	0.	0.000001	0.000000	0.000000	0.007341	-1.322651	2.352840	-0.557711	-1.093536	-2.373469	-0.743794	-1.972512	-1.325929	4.861641	-2.040276	-7.324548	-0.399319	-7.792902	-5.455847	-0.172681	-1.821800	-1.525838	0.452694	0.953442	0.582125	0.295675	2.688643	-8.657900	12.603526	-1.466853	-5.072030	-2.435766	-4.470809	2.828570	0.950342	1.672819	0.657215	
0.000000	103.129014	0.000000	0.230354	0.592157	1.011316	0.903380	2.257374	-1.593318	-0.907645	-3.842977	1.122585	-0.165710	1.042627	-0.493118	0.	0.	0.	-0.829932	2.680630	0.268165	0.655154	-4.620849	-2.426968	-0.327283	1.394663	1.248803	0.	0.	0.	0.000001	0.000000	0.000000	0.007341	-1.322651	2.352840	-0.557711	-1.093536	-2.373469	-0.743794	-1.972512	-1.325929	4.861641	-2.040276	-7.324548	-0.399319	-7.792902	-5.455847	-0.174048	-1.815365	-1.522682	0.453272	0.948051	0.588744	0.296098	2.688619	-8.660599	12.615450	-1.473848	-5.073506	-2.435766	-4.470809	2.828570	0.945909	1.675751	0.663119	
0.000000	103.129014	0.000000	0.230354	0.592157	1.011316	0.903380	2.257374	-1.593318	-0.907645	-3.842977	1.122585	-0.165710	1.042627	-0.493118	0.	0.	0.	-0.829932	2.680630	0.268165	0.655154	-4.620849	-2.426968	-0.327283	1.394663	1.248803	0.	0.	0.	0.000001	0.000000	0.000000	0.007341	-1.322651	2.352840	-0.557711	-1.093536	-2.373469	-0.743794	-1.972512	-1.325929	4.861641	-2.040276	-7.324548	-0.399319	-7.792902	-5.455847	-0.174048	-1.815365	-1.522682	0.451344	0.950034	0.607471	0.297852	2.687586	-8.672259	12.640338	-1.486282	-5.068827	-2.434320	-4.468623	2.832743	0.939791	1.676678	0.665330	
0.000000	103.129014	0.000000	0.230354	0.592157	1.011316	0.903380	2.257374	-1.593318	-0.907645	-3.842977	1.122585	-0.165710	1.042627	-0.493118	0.	0.	0.	-0.829932	2.680630	0.268165	0.655154	-4.620849	-2.426968	-0.327283	1.394663	1.248803	0.	0.	0.	0.000001	0.000000	0.000000	0.007341	-1.322651	2.352840	-0.557711	-1.093536	-2.373469	-0.743794	-1.972512	-1.325929	4.861641	-2.040276	-7.324548	-0.399319	-7.792902	-5.455847	-0.178430	-1.794737	-1.512571	0.454446	0.931469	0.616602	0.305370	2.737353	-8.692206	12.674672	-1.536186	-5.045502	-2.425194	-4.455081	2.858910	0.920663	1.684803	0.656751	
0.000000	103.129014	0.000000	0.230354	0.592157	1.011316	0.903380	2.257374	-1.593318	-0.907645	-3.842977	1.122585	-0.165710	1.042627	-0.493118	0.	0.	0.	-0.829932	2.680630	0.268165	0.655154	-4.620849	-2.426968	-0.327283	1.394663	1.248803	0.	0.	0.	0.000001	0.000000	0.000000	0.007341	-1.322651	2.352840	-0.556849	-1.090549	-2.374029	-0.744512	-1.975545	-1.325393	4.861640	-2.040276	-7.324548	-0.399320	-7.792902	-5.455848	-0.181424	-1.780652	-1.505668	0.455641	0.919753	0.631870	0.312216	2.766467	-8.718788	12.697543	-1.513148	-5.035019	-2.421283	-4.443979	2.872602	0.909765	1.689521	0.655065	
0.000000	103.129014	0.000000	0.230354	0.592157	1.011316	0.903380	2.257374	-1.593318	-0.907645	-3.842977	1.122585	-0.165710	1.042627	-0.493118	0.	0.	0.	-0.829932	2.680630	0.268165	0.655154	-4.620849	-2.426968	-0.327283	1.394663	1.248803	0.	0.	0.	0.000001	0.000000	0.000000	0.007341	-1.322651	2.352840	-0.551251	-1.071138	-2.377655	-0.749180	-1.995214	-1.321915	4.861641	-2.040276	-7.324548	-0.399319	-7.792901	-5.455846	-0.185932	-1.759508	-1.495304	0.456785	0.902846	0.661238	0.316191	2.771448	-8.740946	12.693592	-1.484331	-4.995398	-2.422463	-4.422102	2.880280	0.894577	1.677748	0.668262	
